<svg width="171" height="180" viewBox="0 0 171 180" fill="none" xmlns="http://www.w3.org/2000/svg">
<path d="M47.2932 26.5197V3.36365H107.436V26.5197H129.306V67.0443H107.436L105.738 77.8425C103.667 78.5644 101.67 79.4599 99.7573 80.5108L93.661 75.8961L93.7675 75.7285V26.5197H47.2932Z" fill="#E6E9ED"/>
<path d="M129.307 26.5197H107.436V3.36365L129.307 26.5197Z" fill="#FCD770"/>
<path d="M47.2933 26.5198H11.7515V90.2004H88.2985V78.6224C88.2985 78.1594 88.2467 77.7299 88.1604 77.3217L88.2985 77.2882L91.3107 74.1112L93.6611 75.8962L93.7676 75.7286V26.5198H47.2933Z" fill="#FFC729"/>
<path d="M118.371 150.984C134.997 150.984 148.444 136.75 148.444 119.144C148.444 101.541 134.997 87.3066 118.371 87.3066C113.886 87.3066 109.645 88.3453 105.822 90.2003L105.247 90.2552C105.085 90.2339 104.896 90.2003 104.703 90.2003H88.2985V78.6223C88.2985 78.1593 88.2467 77.7298 88.1604 77.3217L88.2985 77.2882L91.3107 74.1111L93.6611 75.8961L99.7574 80.5109C101.671 79.46 103.667 78.5645 105.739 77.8425L107.436 67.0443H129.307L131.004 77.8425C133.075 78.5645 135.072 79.46 136.985 80.5109L145.432 74.1111L160.904 90.4836L154.871 99.436C155.855 101.462 156.698 103.576 157.38 105.769L167.579 107.566V130.722L157.38 132.519C156.698 134.715 155.855 136.829 154.871 138.852L160.904 147.807L145.432 164.18L136.985 157.792C135.072 158.831 133.075 159.723 131.004 160.448L129.307 171.246H107.436V148.812C110.822 150.204 114.516 150.984 118.371 150.984Z" fill="#FFC729"/>
<path d="M118.371 98.8847C114.409 98.8847 110.713 100.161 107.68 102.354H107.436V93.0941C107.436 91.7051 106.506 90.5172 105.246 90.2552L105.822 90.2004C109.645 88.3453 113.886 87.3066 118.371 87.3066C134.997 87.3066 148.444 101.541 148.444 119.144C148.444 136.75 134.997 150.984 118.371 150.984C114.516 150.984 110.822 150.204 107.436 148.812V135.754C110.523 138.072 114.303 139.406 118.371 139.406C128.952 139.406 137.508 130.35 137.508 119.144C137.508 107.941 128.952 98.8847 118.371 98.8847Z" fill="#FCD770"/>
<path d="M107.436 171.246V174.14C107.436 175.733 106.207 177.034 104.702 177.034H6.28486C4.77734 177.034 3.55176 175.733 3.55176 174.14V165.456H107.436V171.246Z" fill="#053A45"/>
<path d="M107.436 102.354V107.566L66.4275 133.619V127.828C66.4275 126.235 65.1991 124.934 63.6944 124.934H47.2929C45.7854 124.934 44.5569 126.235 44.5569 127.828V133.619L3.55176 107.566V93.0942C3.55176 91.5011 4.77734 90.2004 6.28486 90.2004H104.702C104.895 90.2004 105.085 90.2339 105.246 90.2553C106.506 90.5172 107.436 91.7052 107.436 93.0942V102.354Z" fill="#053A45"/>
<path d="M107.436 148.812V165.456H3.55176V107.566L44.5569 133.619V139.406C44.5569 140.999 45.7854 142.3 47.2929 142.3H63.6944C65.1991 142.3 66.4275 140.999 66.4275 139.406V133.619L107.436 107.566V148.812Z" fill="#639CA8"/>
<path d="M66.4279 133.619V139.406C66.4279 140.999 65.1995 142.3 63.6948 142.3H47.2934C45.7858 142.3 44.5574 140.999 44.5574 139.406V127.828C44.5574 126.235 45.7858 124.934 47.2934 124.934H63.6948C65.1995 124.934 66.4279 126.235 66.4279 127.828V133.619Z" fill="#FCD770"/>
<mask id="mask0_347_985" style="mask-type:luminance" maskUnits="userSpaceOnUse" x="0" y="0" width="171" height="180">
<path d="M0.816162 0.470093H170.315V179.928H0.816162V0.470093Z" fill="white"/>
</mask>
<g mask="url(#mask0_347_985)">
<path d="M157.328 147.478L145.144 160.391L137.23 154.411L135.757 155.212C133.887 156.22 132.008 157.055 130.161 157.689L128.579 158.231L126.988 168.35H110.169V152.76C112.839 153.482 115.572 153.878 118.371 153.878C136.462 153.878 151.177 138.298 151.177 119.144C151.177 99.9905 136.462 84.41 118.371 84.41C113.78 84.41 109.346 85.4182 105.192 87.3616C105.022 87.3403 104.873 87.3067 104.703 87.3067H91.0316V78.6225C91.0316 78.589 91.0229 78.5433 91.0229 78.5098L91.5983 77.8975L99.5128 83.8799L100.986 83.0758C102.856 82.0706 104.734 81.2329 106.581 80.5994L108.161 80.0572L109.752 69.9382H126.988L128.579 80.0572L130.161 80.5994C132.008 81.2329 133.887 82.0706 135.757 83.0758L137.23 83.8799L145.144 77.8975L157.328 90.8097L151.678 99.1772L152.437 100.737C153.387 102.717 154.178 104.706 154.776 106.661L155.288 108.337L164.845 110.021V128.27L155.288 129.954L154.776 131.627C154.178 133.582 153.387 135.574 152.437 137.551L151.678 139.114L157.328 147.478ZM6.28524 174.14V168.35H88.2985V162.562H6.28524V112.677L41.8242 135.258V139.406C41.8242 142.596 44.2811 145.197 47.2933 145.197H63.6948C66.707 145.197 69.161 142.596 69.161 139.406V135.258L104.703 112.677V162.562H93.7676V168.35H104.703V174.14H6.28524ZM63.6948 139.406H47.2933V127.828H63.6948V139.406ZM110.169 140.549C112.764 141.666 115.52 142.3 118.371 142.3C130.429 142.3 140.242 131.91 140.242 119.144C140.242 106.381 130.429 95.988 118.371 95.988C115.52 95.988 112.764 96.6216 110.169 97.7425V93.0942C110.169 92.5734 110.083 92.089 109.968 91.6017C112.658 90.6757 115.477 90.2005 118.371 90.2005C133.449 90.2005 145.708 103.18 145.708 119.144C145.708 135.111 133.449 148.091 118.371 148.091C115.563 148.091 112.819 147.628 110.169 146.732V140.549ZM110.169 104.151C112.658 102.625 115.457 101.779 118.371 101.779C127.416 101.779 134.773 109.567 134.773 119.144C134.773 128.721 127.416 136.513 118.371 136.513C115.457 136.513 112.658 135.663 110.169 134.128V104.151ZM104.703 93.0942V105.927L69.161 128.508V127.828C69.161 124.639 66.707 122.041 63.6948 122.041H47.2933C44.2811 122.041 41.8242 124.639 41.8242 127.828V128.508L6.28524 105.927V93.0942H104.703ZM25.4227 87.3067V78.6225C25.4227 77.0263 26.6483 75.7287 28.1558 75.7287H82.8323C84.3369 75.7287 85.5654 77.0263 85.5654 78.6225V87.3067H25.4227ZM14.4874 29.4167H91.0316V70.3464L91.0114 70.3342L88.7904 72.6857C87.2944 71.0013 85.1799 69.9382 82.8323 69.9382H28.1558C23.6275 69.9382 19.9536 73.828 19.9536 78.6225V87.3067H14.4874V29.4167ZM50.0264 6.26062H104.703V29.4167H126.573V64.1507H105.117L103.302 75.683C102.214 76.1125 101.104 76.5969 100.013 77.1421L96.5007 74.4829V52.5727H121.104V46.7822H96.5007V40.9947H121.104V35.2041H96.5007V23.6261H50.0264V6.26062ZM110.169 10.3515L122.707 23.6261H110.169V10.3515ZM170.315 133.177V105.114L159.42 103.192C159.014 102.025 158.556 100.862 158.044 99.6981L164.471 90.1761L145.731 70.3342L136.729 77.1421C135.639 76.5969 134.528 76.1125 133.438 75.683L132.04 66.8069V25.3228L108.567 0.470093H44.5573V23.6261H9.01835V87.3067H6.28524C3.27308 87.3067 0.816162 89.905 0.816162 93.0942V174.14C0.816162 177.33 3.27308 179.928 6.28524 179.928H104.703C107.712 179.928 110.169 177.33 110.169 174.14H131.622L133.438 162.608C134.528 162.179 135.639 161.691 136.729 161.149L145.731 167.957L164.471 148.112L158.044 138.593C158.556 137.426 159.014 136.263 159.42 135.099L170.315 133.177Z" fill="black"/>
</g>
<path d="M115.638 78.6223H121.104V72.8318H115.638V78.6223Z" fill="black"/>
<path d="M143.499 88.4489L147.365 92.5397L151.229 88.4489L147.365 84.355L143.499 88.4489Z" fill="black"/>
<path d="M162.112 116.25H156.643V122.041H162.112V116.25Z" fill="black"/>
<path d="M143.499 149.842L147.365 153.936L151.229 149.842L147.365 145.748L143.499 149.842Z" fill="black"/>
<path d="M115.638 165.456H121.104V159.668H115.638V165.456Z" fill="black"/>
<path d="M85.5653 35.2041H19.9536V40.9946H85.5653V35.2041Z" fill="black"/>
<path d="M25.4227 46.7821H19.9536V52.5726H25.4227V46.7821Z" fill="black"/>
<path d="M36.358 52.5726V46.7821H30.8889V52.5726H36.358Z" fill="black"/>
<path d="M41.8245 52.5726H85.5656V46.7821H41.8245V52.5726Z" fill="black"/>
<path d="M85.5653 58.3601H19.9536V64.1506H85.5653V58.3601Z" fill="black"/>
<path d="M55.4927 17.8386H60.9618V12.0481H55.4927V17.8386Z" fill="black"/>
<path d="M66.4282 17.8386H88.2988V12.0481H66.4282V17.8386Z" fill="black"/>
<path d="M99.2335 12.0481H93.7673V17.8386H99.2335V12.0481Z" fill="black"/>
</svg>
